<?xml version="1.0" encoding="utf-8"?>
<!-- Generator: Adobe Illustrator 27.5.0, SVG Export Plug-In . SVG Version: 6.00 Build 0)  -->
<svg version="1.0" id="Layer_1" xmlns="http://www.w3.org/2000/svg" xmlns:xlink="http://www.w3.org/1999/xlink" x="0px" y="0px"
	 viewBox="0 0 127.1 132.5" style="enable-background:new 0 0 127.1 132.5;" xml:space="preserve">
<style type="text/css">
	.st0{fill:none;stroke:#000000;stroke-miterlimit:10;}
</style>
<g>
	<path class="st0" d="M104.8,117.9c-0.7,1-1.7,1.6-2.9,1.3c-1.2-0.3-1.9-1.2-2.2-2.3c-0.5-1.8-0.3-3.6,0.7-5.3
		c0.5-0.8,1.2-1.3,2.2-1.2c1.2,0.1,2.2,0.8,2.6,1.9c0.4,1,0.5,2.1,0.7,3.1C105.5,116.3,105.3,117.1,104.8,117.9 M30.6,87.6
		c-0.4,0.8-1,1.4-2,1.4c-0.8,0-1.9-0.9-1.9-1.9c0-1.4,0.1-2.8,0.4-4.1c0.2-1,1.1-1.3,2-1.3c1,0,1.6,0.6,1.9,1.5
		c0.2,0.7,0.3,1.4,0.4,2.1C31.1,86.1,30.9,86.9,30.6,87.6 M20.6,86.6c-0.4,0.8-1.1,1.5-2.1,1.5c-1,0-1.7-0.6-2-1.5
		c-0.3-0.8-0.3-1.7-0.4-2.6c0.2-1.1,0.5-2.2,1.3-3c1.2-1.1,2.8-0.7,3.3,0.8C21.3,83.4,21.2,85.1,20.6,86.6 M40.6,19.8
		c-1.2,1.1-2.9,0.7-3.3-0.9c-0.3-1.5-0.3-3,0.4-4.4c0.6-1.1,1.1-1.4,2.1-1.3c0.9,0.1,1.5,0.7,1.8,1.8c0.1,0.3,0.1,0.5,0.1,0.8
		c0,0.4,0,0.9,0,1.3C41.6,18.1,41.5,19.1,40.6,19.8 M31.2,18.1c-0.3,0.9-1.2,1.5-2.1,1.5c-1,0-1.9-0.7-2.1-1.8
		c-0.2-0.8-0.2-1.6-0.2-2.7c0.3-0.7,0.6-1.6,1-2.5c0.5-0.8,1.3-1,2.2-0.8c0.9,0.2,1.3,0.8,1.5,1.6C31.9,15.1,31.8,16.6,31.2,18.1
		 M111.1,22.6c1-0.5,2.1-0.4,3,0.4c1.4,1.4,1.9,3.4,1.2,5.3c-0.5,1.3-1.6,2.2-2.7,2.1c-1.3-0.1-2.7-1.2-2.9-2.5
		c-0.2-0.8-0.1-1.6-0.2-2.2C109.7,24.3,109.9,23.2,111.1,22.6 M106.4,104.3c-2.7-0.7-3.1-1.6-2.8-4.2c0-0.3,0.1-0.6,0.2-0.9
		c0.3-1.7,0.5-3.4-0.2-5.1c-0.6-1.3-1.5-2.1-3-2.2c-1.1-0.1-2.2-0.1-3.3,0.3c-0.8,0.3-1.7,0.5-2.5,0.7c-1,0.2-1.5-0.2-1.7-1.2
		c-0.1-1-0.2-2-0.3-3c-0.4-4.4-4.2-7.1-8-6.7c-2.6,0.2-5.2,0.4-7.7-0.2c-1-0.2-1.3-0.8-1.3-1.6c-0.1-1.5,0.5-2.4,1.9-2.9
		c0.7-0.2,1.4-0.4,2-0.7c2.4-1.1,3-4.1,1.2-6c-0.6-0.7-1.3-1-2-1.4c-0.8-0.4-1.5-1-1.7-1.9c-0.6-2.1-2-3.3-3.9-4.1
		c-1.8-0.8-3-2.3-3.9-4c-0.2-0.4-0.4-0.8,0-1.3c0.4-0.4,0.8-0.4,1.3-0.3c1.3,0.3,2.6,0.8,4,0.9c3,0.3,5.8-0.1,8.3-1.9
		c1.1-0.8,1.7-2,1.5-3.4c-0.2-1.5-1.1-2.4-2.5-2.8c-0.5-0.2-1-0.3-1.5-0.5c-1.1-0.5-1.6-2.4-0.8-3.4c1.2-1.5,4.6-1.9,6.1-0.8
		c0.7,0.5,1.5,1.1,2.3,1.6c2.3,1.4,4.9,1.6,7.5,1.1c2.7-0.5,5.3-0.5,7.9-0.2c1.5,0.2,3,0.2,4.6,0.2c0.8,0,1.7-0.1,2.5-0.3
		c2.1-0.6,3.2-2.6,2.4-4.7c-0.2-0.7-0.7-1.2-1.1-1.9c-1.1-1.9-1.2-2.7,0.4-3.8c0.3-0.2,0.7-0.3,1.1-0.4c1.2-0.3,2.4-0.6,3.5-1.1
		c4.5-2,7.2-6,6.8-10.9c-0.2-3.4-1.9-6-4.5-8c-1.2-0.9-2.7-1.3-4.2-1.5c-1.8-0.2-3.7-0.3-5.5-0.8c-0.4-0.1-0.8-0.1-1.2-0.1
		c-2.1,0-4.1,0.8-6,1.7c-0.9,0.4-1.8,1.1-2.2,2.1c-0.8,1.7-0.3,3.2,0.7,4.5c1,1.4,1,2.9,0.7,4.5c-0.2,0.9-0.9,1.2-1.7,0.8
		c-0.7-0.3-1.4-0.7-2.1-1c-1.2-0.5-2.5-0.8-3.8-0.8c-3.5,0.1-6,1.9-8.1,4.5c-1,1.3-1.7,2.7-2.2,4.2c-0.2,0.6-0.6,1.2-1.4,1.3
		c-0.7,0.1-1.1-0.5-1.4-1.1c-0.2-0.4-0.4-0.7-0.6-1.1c-0.9-1.7-2.3-2.2-4.1-1.4c-0.4,0.2-0.7,0.3-1,0.6c-1.5,1.1-3,2.2-4.5,3.3
		c-2.5,1.7-3.5,4-2.3,6.9c0.3,0.8,0.5,1.7,0.3,2.6c-0.2,0.8-0.5,1.4-1.4,1.6c-1.1,0.3-2.3-0.1-2.7-0.8c-0.7-1.1-0.2-2.2-0.1-3.2
		c0.1-1.4,0.7-2.7,0.7-4.2c0-2.3-1-3.8-3.5-4.1c-1.2-0.2-2.4,0.2-3.6,0.3c-0.9,0.1-1.4-0.3-1.7-1.1c-0.2-0.8-0.2-1.7-0.3-2.5
		c-0.1-2.3-1-4.2-2.6-5.9c-0.6-0.6-1-1.3-1.4-2c-0.4-0.8-0.7-1.7-1.1-2.4c-1-1.7-1.2-3.4-1-5.3c0.2-1.7,0.1-3.3-0.3-5
		c-0.7-3.7-4-5.3-7.1-5.4c-2.2-0.1-4.4,0.2-6.4-0.7c-1.2-0.5-2.6-0.7-3.9-0.7c-1.3,0-2.6-0.1-3.9-0.4c-3-0.7-5.8-0.1-8.4,1.1
		c-1.7,0.8-2.3,2.3-2.1,4.2c0.1,1,0.6,1.8,1,2.7c0.6,1.2,0.8,2.5,0.2,3.8c-0.4,0.9-0.9,1.8-1.4,2.6c-2,2.7-1,5.7,2.3,6.4
		c4.1,0.9,8.4,0.9,12.6,1.4c1.7,0.2,3.5,0.1,5.2,0.5c1.5,0.4,1.8,0.9,1.4,2.3c-0.3,1.3-0.4,2.6-0.2,3.9c0.1,0.8,0,1.4-0.4,2.1
		c-0.9,1.7-1.8,3.3-1.6,5.3c0.3,3.7,2.9,5.7,6.3,5.7c1.7,0,3.5,0,5.2,0.3c0.9,0.2,1.9,0.3,2.8,0.4c1.7,0,2.2,1.2,2.1,2.5
		c-0.1,1.8-0.3,3.6-0.5,5.4c-0.1,0.9-0.1,1.8-0.4,2.6c-0.4,1.2-1.1,1.6-2.2,1.3c-0.3-0.1-0.6-0.2-0.9-0.3c-2-0.6-4-0.7-6.1,0
		c-2.8,1-4.9,2.9-6.4,5.5c-1.2,2.2-1.9,4.5-1.5,7c0.1,0.8,0.2,1.5,0.3,2.3c0.2,1.3-0.2,1.7-1.5,1.6c-1-0.1-1.9-0.2-2.9-0.1
		c-2,0.1-4,0.1-6-0.7c-1.4-0.6-2.9-0.9-4.5-0.7c-0.9,0.1-1.9,0-2.8-0.3c-3-0.8-5.9-0.3-8.7,0.9c-1.9,0.8-2.7,2.7-2.2,4.7
		c0.1,0.5,0.3,1,0.6,1.5c1.3,2.1,1.2,4.1-0.1,6.1c-0.6,1-1.3,1.8-1.6,3c-0.5,1.7,0.6,3.7,2.3,4.2c1.3,0.4,2.5,0.7,3.9,0.8
		c3.6,0.3,7.3,0.6,10.9,0.9c4,0.3,8,0.7,12,1c0.9,0.1,1.9,0,2.8-0.1c1.6-0.3,2.7-1.1,3-2.8c0.2-1-0.1-2-0.6-2.9c-0.5-1-1-1.9-1-3
		c0-2.2,0.2-4.5,0.1-6.7c-0.1-1.3,0.5-1.7,1.7-1.3c1.5,0.5,3.1,0.7,4.7,0.7c2.4,0,4.7-0.6,6.8-2c1.8-1.3,2.2-3.7,0.9-5.3
		c-0.2-0.3-0.4-0.7-0.7-1c-0.4-0.5-0.4-1,0.2-1.3c1.1-0.6,2.3-1.1,3.6-1.3c0.8-0.1,1.5,0,2.3,0c1.4,0,2.9,0.1,4.3,0.5
		c1.1,0.3,1.3,0.7,1.3,1.8c-0.1,1.3,0,2.6,0.4,3.9c0.2,0.6,0.3,1.2,0.4,1.8c0.3,1.9-0.1,3.9-0.2,5.8c-0.1,4,2.7,7,6.3,7.4
		c1,0.1,1.9,0.1,2.9,0.3c1.2,0.2,1.7,1.1,1.3,2.2c-0.4,0.9-0.8,1.8-1.2,2.7c-0.6,1.5-0.2,5.3,1.5,6.5c1.6,1.2,3.4,1.8,5.4,1.6
		c1-0.1,2.1-0.2,3.1,0c2.2,0.5,4.3,0.5,6.5,0.2c1.5-0.2,2.2,0.4,2.1,1.9c-0.3,4.4-0.5,8.8-1.5,13.1c-0.2,0.9-0.2,1.8,0,2.7
		c0.3,1.4,1.2,2.4,2.6,2.9c1,0.4,2,0.4,3.1,0.7c3.1,0.7,6.3,1.1,9.3-0.3c4.3-1.9,7.3-4.9,7.8-9.9C114.4,109.9,111,105.5,106.4,104.3
		"/>
</g>
</svg>
